<?xml version="1.0" encoding="UTF-8" standalone="no"?>
<svg
   version="1.0"
   width="1600px"
   height="647px"
   viewBox="0 0 16000 6470"
   preserveAspectRatio="xMidYMid meet"
   id="svg75"
   sodipodi:docname="Fasttube_Logo_Weiß.svg"
   inkscape:export-filename="/home/oskar/Documents/Uni/FaSTTUBe/Medien/MyLogos/Fasttube_Logo_Weiß.png"
   inkscape:export-xdpi="169.33"
   inkscape:export-ydpi="169.33"
   inkscape:version="1.1.1 (3bf5ae0d25, 2021-09-20)"
   xmlns:inkscape="http://www.inkscape.org/namespaces/inkscape"
   xmlns:sodipodi="http://sodipodi.sourceforge.net/DTD/sodipodi-0.dtd"
   xmlns="http://www.w3.org/2000/svg"
   xmlns:svg="http://www.w3.org/2000/svg"
   xmlns:rdf="http://www.w3.org/1999/02/22-rdf-syntax-ns#"
   xmlns:cc="http://creativecommons.org/ns#"
   xmlns:dc="http://purl.org/dc/elements/1.1/">
  <metadata
     id="metadata81">
    <rdf:RDF>
      <cc:Work
         rdf:about="">
        <dc:format>image/svg+xml</dc:format>
        <dc:type
           rdf:resource="http://purl.org/dc/dcmitype/StillImage" />
      </cc:Work>
    </rdf:RDF>
  </metadata>
  <defs
     id="defs79" />
  <sodipodi:namedview
     pagecolor="#ffffff"
     bordercolor="#666666"
     borderopacity="1"
     objecttolerance="10"
     gridtolerance="10"
     guidetolerance="10"
     inkscape:pageopacity="0"
     inkscape:pageshadow="2"
     inkscape:window-width="1920"
     inkscape:window-height="1080"
     id="namedview77"
     showgrid="false"
     inkscape:pagecheckerboard="true"
     inkscape:zoom="0.4175"
     inkscape:cx="871.85629"
     inkscape:cy="474.2515"
     inkscape:window-x="0"
     inkscape:window-y="0"
     inkscape:window-maximized="1"
     inkscape:current-layer="svg75" />
  <g
     id="layer101"
     fill="#000000"
     stroke="none"
     style="fill:#ffffff;fill-opacity:1">
    <path
       d="M701 6456 c-125 -41 -189 -198 -163 -402 23 -178 103 -253 269 -254 125 0 184 32 232 126 50 96 52 295 6 401 -45 100 -99 135 -220 140 -50 2 -96 -2 -124 -11z m205 -35 c90 -41 130 -146 122 -321 -10 -209 -78 -280 -258 -270 -108 6 -176 98 -187 254 -13 191 39 310 152 347 41 14 130 8 171 -10z"
       id="path2"
       style="fill:#ffffff;fill-opacity:1" />
    <path
       d="M2670 6459 c-46 -14 -98 -65 -110 -109 -5 -19 -10 -149 -10 -287 0 -242 1 -253 19 -253 18 0 19 12 23 258 3 233 5 261 23 296 26 51 74 76 143 76 89 0 155 -38 193 -112 17 -34 19 -61 19 -278 l0 -240 25 0 25 0 0 325 0 325 -25 0 c-23 0 -25 -4 -25 -42 -1 -34 -3 -39 -11 -26 -5 10 -30 30 -56 45 -37 21 -61 27 -122 29 -42 2 -92 -1 -111 -7z"
       id="path4"
       style="fill:#ffffff;fill-opacity:1" />
    <path
       d="M3468 6460 c-98 -29 -153 -142 -114 -233 27 -65 82 -96 201 -116 39 -7 98 -19 132 -28 57 -14 63 -19 74 -51 14 -43 7 -113 -15 -147 -26 -40 -70 -56 -148 -56 -105 0 -163 43 -175 129 -5 36 -9 42 -29 42 -20 0 -24 -5 -23 -27 4 -111 90 -173 239 -173 90 0 142 19 179 66 20 25 21 38 21 268 0 270 4 289 58 294 45 5 43 32 -3 32 -51 0 -83 -18 -90 -51 l-7 -29 -39 34 c-22 19 -60 39 -84 45 -50 13 -137 13 -177 1z m198 -46 c74 -48 96 -96 102 -220 l4 -101 -78 18 c-44 10 -114 25 -157 34 -117 25 -161 82 -142 182 7 41 60 98 97 107 47 10 145 -1 174 -20z"
       id="path6"
       style="fill:#ffffff;fill-opacity:1" />
    <path
       d="M4510 6457 c-121 -34 -190 -119 -190 -233 0 -37 3 -44 20 -44 15 0 20 7 20 27 0 55 33 134 72 168 100 91 341 84 433 -12 73 -76 76 -201 5 -261 -27 -23 -133 -69 -190 -82 -160 -37 -272 -87 -303 -134 -32 -48 -41 -110 -23 -163 37 -112 143 -173 298 -173 177 0 298 87 298 215 0 27 -4 35 -18 35 -14 0 -21 -13 -31 -52 -26 -113 -100 -162 -246 -163 -50 0 -106 6 -127 13 -53 19 -113 83 -128 136 -32 117 41 189 248 242 195 50 285 99 312 170 16 40 11 125 -9 169 -22 49 -79 101 -140 128 -57 25 -233 33 -301 14z"
       id="path8"
       style="fill:#ffffff;fill-opacity:1" />
    <path
       d="M5497 6456 c-45 -17 -73 -40 -95 -81 -14 -25 -17 -74 -20 -297 l-4 -268 25 0 26 0 3 269 c3 254 4 271 24 298 48 65 148 82 241 39 39 -19 58 -35 80 -73 l28 -48 3 -242 4 -243 24 0 24 0 0 325 0 325 -25 0 c-23 0 -25 -4 -25 -41 l0 -41 -40 35 c-22 18 -57 39 -79 45 -51 16 -147 14 -194 -2z"
       id="path10"
       style="fill:#ffffff;fill-opacity:1" />
    <path
       d="M6145 6456 c-57 -21 -120 -92 -140 -157 -23 -73 -30 -205 -15 -281 30 -153 106 -218 255 -218 90 0 137 20 184 77 l31 38 0 -173 0 -172 25 0 25 0 0 445 0 445 -25 0 c-24 0 -25 -3 -25 -57 l0 -58 -25 37 c-39 58 -86 81 -174 85 -50 2 -90 -2 -116 -11z m178 -30 c72 -30 107 -90 129 -214 9 -56 9 -90 0 -154 -15 -106 -46 -165 -105 -201 -84 -53 -220 -30 -270 46 -29 45 -47 129 -47 221 0 157 40 254 122 295 50 24 123 28 171 7z"
       id="path12"
       style="fill:#ffffff;fill-opacity:1" />
    <path
       d="M6809 6461 c-73 -24 -110 -58 -146 -135 -26 -58 -28 -68 -28 -201 0 -132 2 -143 27 -190 52 -99 115 -135 238 -135 148 0 219 57 249 198 6 29 11 69 11 87 l0 35 -241 0 -242 0 6 78 c12 169 92 251 237 240 48 -3 67 -10 97 -34 43 -35 69 -78 79 -128 5 -30 11 -36 31 -36 22 0 23 3 17 38 -22 119 -101 183 -234 188 -41 2 -87 0 -101 -5z m301 -410 c0 -115 -79 -219 -170 -222 -104 -4 -144 7 -193 57 -36 36 -55 82 -63 150 l-7 54 217 0 216 0 0 -39z"
       id="path14"
       style="fill:#ffffff;fill-opacity:1" />
    <path
       d="M9188 6456 c-90 -32 -141 -111 -159 -245 -22 -164 14 -304 93 -362 54 -40 85 -49 169 -49 164 0 239 72 255 245 l7 75 -243 0 -243 0 7 68 c12 131 43 192 116 230 37 19 57 23 112 20 57 -3 73 -8 105 -34 45 -37 83 -98 83 -136 0 -23 4 -28 25 -28 20 0 25 5 25 24 0 73 -80 171 -159 194 -50 16 -147 14 -193 -2z m309 -431 c-13 -134 -78 -197 -206 -196 -77 0 -110 13 -153 58 -34 35 -54 83 -63 151 l-7 52 218 0 217 0 -6 -65z"
       id="path16"
       style="fill:#ffffff;fill-opacity:1" />
    <path
       d="M9747 6456 c-75 -28 -117 -88 -117 -167 0 -105 55 -147 246 -185 171 -34 174 -36 174 -125 0 -82 -7 -100 -55 -129 -49 -30 -160 -30 -215 1 -43 24 -70 70 -70 118 0 26 -4 31 -25 31 -21 0 -25 -5 -25 -29 0 -107 87 -171 230 -171 98 0 158 23 189 73 20 33 21 46 21 279 0 225 2 246 18 261 10 10 28 17 40 17 13 0 22 6 22 15 0 10 -10 15 -29 15 -52 0 -81 -17 -88 -50 l-6 -31 -26 24 c-14 14 -42 33 -61 43 -47 23 -172 29 -223 10z m193 -38 c24 -13 58 -40 74 -61 30 -37 31 -43 34 -149 l4 -111 -29 7 c-15 3 -65 13 -110 21 -122 21 -155 32 -192 63 -31 25 -35 35 -39 88 -3 50 0 64 20 93 49 72 152 92 238 49z"
       id="path18"
       style="fill:#ffffff;fill-opacity:1" />
    <path
       d="M12390 6456 c-25 -7 -57 -18 -71 -24 -36 -15 -94 -84 -107 -131 -8 -26 -12 -151 -12 -385 l0 -346 25 0 25 0 0 354 c0 388 1 395 60 453 47 46 124 67 229 61 115 -7 179 -40 219 -113 15 -26 17 -78 20 -392 l3 -363 25 0 24 0 0 330 c0 196 -4 349 -11 379 -15 71 -57 123 -124 157 -49 23 -72 28 -159 31 -65 2 -117 -2 -146 -11z"
       id="path20"
       style="fill:#ffffff;fill-opacity:1" />
    <path
       d="M14270 6459 c-121 -37 -178 -165 -168 -378 6 -108 23 -159 71 -210 50 -53 99 -71 195 -71 65 0 92 5 125 21 84 42 127 122 127 236 l0 63 -240 0 -241 0 7 63 c19 172 74 243 196 254 111 11 187 -42 219 -152 11 -36 18 -45 36 -45 27 0 27 2 9 64 -32 106 -103 157 -226 162 -41 2 -91 -1 -110 -7z m300 -423 c0 -87 -39 -159 -103 -192 -16 -9 -57 -15 -98 -15 -57 0 -78 4 -114 25 -62 37 -87 84 -109 204 l-5 32 214 0 215 0 0 -54z"
       id="path22"
       style="fill:#ffffff;fill-opacity:1" />
    <path
       d="M10 6015 l0 -445 265 0 c170 0 265 4 265 10 0 6 -88 10 -245 10 l-245 0 0 195 0 195 225 0 c193 0 225 2 225 15 0 13 -32 15 -225 15 l-225 0 0 225 c0 218 -1 225 -20 225 -20 0 -20 -7 -20 -445z"
       id="path24"
       style="fill:#ffffff;fill-opacity:1" />
    <path
       d="M1200 6135 l0 -325 25 0 c23 0 25 4 25 41 l0 42 25 -27 c37 -40 101 -66 168 -66 71 0 75 16 5 25 -96 13 -159 62 -187 144 -7 21 -11 118 -11 262 l0 229 -25 0 -25 0 0 -325z"
       id="path26"
       style="fill:#ffffff;fill-opacity:1" />
    <path
       d="M1580 6135 l0 -325 25 0 c21 0 25 5 25 30 0 31 14 41 23 17 3 -8 26 -24 51 -35 94 -45 249 -20 278 43 14 31 23 31 43 1 42 -63 201 -89 286 -46 77 40 79 48 79 363 0 268 -1 277 -19 277 -19 0 -20 -10 -23 -273 -3 -240 -5 -276 -21 -300 -25 -39 -72 -59 -133 -58 -86 1 -140 40 -169 120 -12 34 -15 93 -15 277 l0 234 -25 0 -25 0 0 -270 c0 -294 -3 -310 -55 -344 -33 -22 -132 -23 -172 -2 -41 21 -70 56 -88 105 -12 34 -15 93 -15 277 l0 234 -25 0 -25 0 0 -325z"
       id="path28"
       style="fill:#ffffff;fill-opacity:1" />
    <path
       d="M3170 6015 l0 -445 25 0 25 0 0 445 0 445 -25 0 -25 0 0 -445z"
       id="path30"
       style="fill:#ffffff;fill-opacity:1" />
    <path
       d="M5190 6447 c-57 -20 -60 -33 -60 -334 l0 -273 -55 0 c-42 0 -55 -3 -55 -15 0 -12 13 -15 55 -15 l55 0 0 -100 0 -100 25 0 25 0 0 100 0 100 70 0 c56 0 70 3 70 15 0 12 -14 15 -70 15 l-70 0 0 280 0 280 25 16 c17 11 40 15 75 12 41 -2 50 0 48 12 -4 20 -90 24 -138 7z"
       id="path32"
       style="fill:#ffffff;fill-opacity:1" />
    <path
       d="M7270 6135 l0 -325 25 0 c22 0 25 4 25 36 l0 35 33 -24 c63 -48 92 -57 179 -57 96 0 147 22 185 79 23 33 23 39 23 307 0 264 -1 274 -19 274 -19 0 -20 -11 -23 -267 -3 -262 -4 -269 -26 -301 -32 -45 -73 -63 -141 -63 -93 -1 -161 43 -195 125 -13 31 -16 81 -16 272 l0 234 -25 0 -25 0 0 -325z"
       id="path34"
       style="fill:#ffffff;fill-opacity:1" />
    <path
       d="M8005 6452 c-73 -24 -75 -32 -75 -341 l0 -271 -50 0 c-38 0 -50 -4 -50 -15 0 -11 12 -15 50 -15 l50 0 0 -100 0 -100 25 0 25 0 0 100 0 100 70 0 c56 0 70 3 70 15 0 12 -14 15 -70 15 l-70 0 0 273 c0 149 4 277 8 283 14 21 51 34 96 34 34 0 46 4 46 15 0 12 -12 15 -52 14 -29 -1 -62 -4 -73 -7z"
       id="path36"
       style="fill:#ffffff;fill-opacity:1" />
    <path
       d="M8740 6025 l0 -435 -155 0 c-97 0 -155 -4 -155 -10 0 -6 117 -10 330 -10 213 0 330 4 330 10 0 6 -57 10 -150 10 l-150 0 0 435 0 435 -25 0 -25 0 0 -435z"
       id="path38"
       style="fill:#ffffff;fill-opacity:1" />
    <path
       d="M10260 6135 l0 -325 25 0 c22 0 25 4 25 35 l0 34 27 -25 c42 -39 88 -54 165 -54 79 0 134 22 162 65 l18 27 31 -32 c43 -44 88 -60 169 -60 85 0 136 23 169 77 23 37 24 44 27 311 l3 272 -25 0 -26 0 0 -260 c0 -287 -4 -310 -59 -349 -48 -34 -138 -31 -193 6 -77 52 -83 73 -86 356 l-4 247 -24 0 -24 0 0 -265 c0 -288 -4 -316 -53 -348 -33 -22 -137 -23 -177 -2 -35 18 -73 67 -89 114 -7 22 -11 120 -11 267 l0 234 -25 0 -25 0 0 -325z"
       id="path40"
       style="fill:#ffffff;fill-opacity:1" />
    <path
       d="M11780 6025 l0 -435 -155 0 c-97 0 -155 -4 -155 -10 0 -6 118 -10 335 -10 217 0 335 4 335 10 0 6 -58 10 -155 10 l-155 0 0 435 0 435 -25 0 -25 0 0 -435z"
       id="path42"
       style="fill:#ffffff;fill-opacity:1" />
    <path
       d="M13360 6016 l0 -446 204 0 c221 0 258 7 324 56 54 42 72 80 71 154 0 40 -6 78 -17 99 -21 43 -80 91 -124 101 l-33 7 30 7 c122 31 180 102 179 221 0 108 -48 176 -153 217 -50 19 -80 22 -268 26 l-213 4 0 -446z m409 399 c129 -31 176 -84 176 -201 0 -89 -29 -140 -102 -175 -45 -22 -62 -24 -240 -27 l-193 -4 0 211 0 211 148 0 c96 0 169 -6 211 -15z m38 -464 c74 -32 106 -83 106 -168 0 -83 -32 -131 -106 -163 -44 -19 -75 -23 -224 -28 l-173 -5 0 198 0 198 173 -5 c149 -4 179 -8 224 -27z"
       id="path44"
       style="fill:#ffffff;fill-opacity:1" />
    <path
       d="M14740 6135 c0 -318 0 -325 20 -325 17 0 20 7 20 46 l0 47 21 -27 c34 -43 110 -76 174 -76 67 0 72 16 8 26 -93 14 -145 51 -180 129 -14 33 -18 78 -21 273 -4 220 -5 232 -23 232 -18 0 -19 -12 -19 -325z"
       id="path46"
       style="fill:#ffffff;fill-opacity:1" />
    <path
       d="M15100 6015 l0 -445 25 0 25 0 0 445 0 445 -25 0 -25 0 0 -445z"
       id="path48"
       style="fill:#ffffff;fill-opacity:1" />
    <path
       d="M15310 6135 l0 -325 25 0 25 0 0 325 0 325 -25 0 -25 0 0 -325z"
       id="path50"
       style="fill:#ffffff;fill-opacity:1" />
    <path
       d="M15510 6135 l0 -325 25 0 c22 0 25 4 25 36 l0 35 33 -24 c62 -47 92 -57 175 -57 87 0 135 15 168 52 48 52 49 60 52 341 l4 267 -25 0 -26 0 -3 -267 c-3 -262 -4 -269 -26 -301 -32 -45 -73 -63 -141 -63 -93 -1 -161 43 -195 125 -13 31 -16 81 -16 272 l0 234 -25 0 -25 0 0 -325z"
       id="path52"
       style="fill:#ffffff;fill-opacity:1" />
    <path
       d="M15310 5630 c0 -57 1 -60 25 -60 24 0 25 3 25 60 0 57 -1 60 -25 60 -24 0 -25 -3 -25 -60z"
       id="path54"
       style="fill:#ffffff;fill-opacity:1" />
    <path
       d="M0 5023 c0 -511 6 -596 46 -678 48 -97 149 -173 276 -206 67 -18 121 -19 820 -19 l748 0 0 170 0 170 -765 0 -765 0 0 75 0 75 765 0 765 0 0 170 0 170 -765 0 -765 0 0 260 0 260 -180 0 -180 0 0 -447z"
       id="path56"
       style="fill:#ffffff;fill-opacity:1" />
    <path
       d="M2235 5455 c-121 -34 -234 -125 -287 -233 -32 -64 -33 -72 -33 -182 0 -107 2 -119 29 -175 40 -81 129 -168 208 -204 104 -47 160 -51 792 -51 l586 0 0 -75 0 -75 -775 0 -775 0 0 -170 0 -170 808 2 807 3 55 28 c92 48 167 133 215 247 18 42 19 80 23 558 l3 512 -803 -1 c-644 -1 -813 -3 -853 -14z m1295 -415 l0 -80 -625 0 -625 0 0 80 0 80 625 0 625 0 0 -80z"
       id="path58"
       style="fill:#ffffff;fill-opacity:1" />
    <path
       d="M4062 5298 l3 -173 828 -3 827 -2 0 -74 0 -75 -687 -3 c-622 -3 -692 -5 -733 -21 -136 -52 -231 -132 -282 -235 -59 -120 -50 -271 23 -378 39 -58 113 -121 181 -155 119 -60 98 -59 970 -59 l798 0 0 170 0 170 -815 0 -815 0 0 75 0 75 663 0 c532 0 672 3 712 14 164 45 284 153 330 294 26 80 18 219 -16 293 -51 108 -161 200 -287 239 -62 19 -94 20 -883 20 l-819 0 2 -172z"
       id="path60"
       style="fill:#ffffff;fill-opacity:1" />
    <path
       d="M6890 4965 l0 -505 -390 0 -390 0 0 -170 0 -170 1905 0 1905 0 0 170 0 170 -390 0 -390 0 0 505 0 505 -180 0 -180 0 0 -505 0 -505 -765 0 -765 0 0 505 0 505 -180 0 -180 0 0 -505z"
       id="path62"
       style="fill:#ffffff;fill-opacity:1" />
    <path
       d="M10253 5446 c-142 -53 -260 -192 -292 -344 -7 -35 -11 -214 -11 -517 l0 -465 180 0 180 0 0 500 0 500 630 0 630 0 0 -500 0 -500 180 0 181 0 -3 518 -3 517 -27 57 c-49 104 -162 204 -272 241 -44 15 -119 17 -680 16 l-631 0 -62 -23z"
       id="path64"
       style="fill:#ffffff;fill-opacity:1" />
    <path
       d="M12030 4795 l0 -676 823 3 822 3 56 23 c140 56 217 146 246 287 19 93 9 166 -37 280 l-28 70 28 50 c80 143 91 277 33 396 -53 106 -153 185 -282 221 -61 17 -121 18 -863 18 l-798 0 0 -675z m1600 250 l0 -75 -625 0 -625 0 0 75 0 75 625 0 625 0 0 -75z m-20 -510 l0 -75 -615 0 -615 0 0 75 0 75 615 0 615 0 0 -75z"
       id="path66"
       style="fill:#ffffff;fill-opacity:1" />
    <path
       d="M14415 5453 c-105 -32 -212 -118 -271 -218 l-29 -50 0 -385 0 -385 29 -59 c16 -33 49 -79 73 -104 51 -51 164 -107 245 -122 36 -7 265 -10 645 -8 l588 3 59 30 c118 60 199 158 231 280 11 45 15 115 15 297 l0 238 -770 0 -770 0 0 75 0 75 770 0 770 0 0 175 0 175 -767 -1 c-655 -1 -775 -3 -818 -16z m1225 -918 l0 -75 -590 0 -590 0 0 75 0 75 590 0 590 0 0 -75z"
       id="path68"
       style="fill:#ffffff;fill-opacity:1" />
    <path
       d="M0 3830 l0 -40 204 0 205 0 6 -47 c36 -255 170 -590 317 -788 281 -379 688 -639 1128 -719 309 -56 547 -46 844 36 344 95 681 312 891 573 22 28 43 52 46 55 39 35 203 314 237 405 70 188 122 381 122 454 l0 31 1872 -2 1871 -3 10 -30 c19 -59 137 -352 175 -436 l40 -86 -92 -6 c-50 -4 -145 -11 -211 -17 -66 -5 -203 -16 -305 -25 -248 -20 -566 -53 -720 -74 -36 -5 -105 -14 -155 -20 -248 -31 -658 -105 -915 -167 -743 -176 -1323 -428 -1730 -751 -47 -37 -137 -119 -201 -183 -95 -94 -117 -122 -123 -153 -15 -80 26 -134 121 -161 76 -22 153 -27 543 -36 372 -9 438 -16 474 -51 19 -18 20 -41 24 -804 l5 -785 93 0 94 0 -2 844 -3 844 -24 26 c-79 84 -235 108 -799 122 l-284 7 44 41 c217 205 475 373 808 524 93 42 238 102 285 117 22 8 87 30 145 50 130 46 381 118 520 150 263 60 529 113 705 140 55 9 127 20 160 25 33 6 98 15 145 20 47 6 119 15 160 20 68 9 204 23 475 50 55 6 183 17 285 25 102 8 244 19 315 25 72 6 201 17 288 24 86 7 159 15 161 17 3 2 -19 51 -48 109 -84 170 -256 572 -256 601 0 5 349 8 893 7 l892 -3 3 -25 c5 -50 34 -186 49 -235 190 -625 654 -1059 1298 -1214 22 -6 94 -17 160 -26 453 -58 913 66 1285 349 99 75 277 260 353 366 77 109 182 314 227 444 27 80 57 201 75 309 l6 37 1003 0 1003 0 53 -107 c47 -96 67 -138 127 -271 24 -53 50 -135 57 -179 7 -36 4 -45 -24 -77 -63 -71 -249 -175 -530 -294 -215 -92 -696 -260 -1015 -357 -346 -104 -387 -115 -625 -179 -681 -181 -1406 -333 -1980 -415 -41 -6 -104 -16 -140 -21 -36 -6 -114 -17 -175 -25 -60 -8 -144 -19 -185 -25 -74 -10 -270 -32 -445 -51 -211 -22 -643 -49 -800 -49 -177 0 -320 17 -371 43 -30 15 -225 154 -234 166 -3 4 -21 19 -41 34 -33 25 -43 27 -125 26 -49 0 -107 -3 -129 -7 l-40 -7 45 -50 c51 -56 134 -135 176 -167 16 -12 31 -25 34 -29 10 -14 166 -107 222 -132 129 -59 285 -73 643 -57 369 16 755 52 1200 110 560 73 1221 187 1625 281 47 10 123 28 170 39 419 95 889 216 1200 306 666 195 1182 392 1435 549 199 123 309 219 320 279 17 87 -32 229 -184 534 -33 68 -61 126 -61 128 0 2 133 4 295 4 l295 0 0 40 0 40 -7995 0 -7995 0 0 -40z m3805 -87 c-20 -136 -94 -357 -162 -483 -89 -163 -158 -256 -287 -386 -116 -116 -169 -158 -286 -230 -282 -175 -536 -247 -865 -247 -184 1 -315 19 -470 66 -284 87 -547 255 -737 472 -174 199 -308 454 -363 690 -30 130 -35 154 -35 159 0 3 723 6 1606 6 l1606 0 -7 -47z m9190 25 c-44 -203 -70 -285 -126 -406 -36 -79 -133 -242 -170 -287 -214 -259 -411 -406 -694 -514 -395 -151 -857 -126 -1240 66 -434 219 -758 655 -831 1121 l-7 42 1537 0 1536 0 -5 -22z"
       id="path70"
       style="fill:#ffffff;fill-opacity:1" />
    <path
       d="M8040 2320 c-612 -31 -1114 -101 -1440 -202 -456 -141 -725 -281 -811 -424 -98 -162 -189 -481 -189 -659 0 -117 91 -340 192 -470 110 -142 272 -250 443 -296 112 -30 338 -38 450 -14 235 48 439 198 580 425 88 143 115 230 82 270 -36 45 -69 55 -177 53 -97 -1 -159 -10 -550 -79 -143 -25 -180 -15 -180 49 1 71 54 143 139 187 79 40 865 280 918 280 7 0 13 1 13 3 0 12 -99 247 -141 335 -47 99 -56 112 -79 112 -27 0 -181 -28 -187 -34 -3 -2 27 -67 66 -144 l70 -141 -57 -16 c-123 -34 -407 -120 -502 -152 -106 -35 -108 -36 -184 -74 -93 -46 -178 -128 -212 -204 -23 -51 -28 -74 -28 -151 -1 -84 1 -94 29 -139 19 -31 49 -61 79 -80 66 -40 156 -44 316 -15 128 23 312 54 378 64 42 6 43 6 31 -16 -22 -41 -203 -214 -263 -253 -104 -65 -197 -96 -306 -102 -240 -14 -438 76 -588 265 -74 93 -132 254 -132 365 0 54 27 209 46 267 55 163 99 255 152 312 118 127 421 262 737 328 59 12 251 49 315 60 120 21 413 57 585 71 315 25 420 30 753 36 193 3 352 8 352 12 0 3 -10 17 -23 31 -12 14 -38 45 -57 70 -19 25 -42 53 -50 62 -13 16 -35 18 -220 16 -113 -1 -270 -4 -350 -8z"
       id="path72"
       style="fill:#ffffff;fill-opacity:1" />
  </g>
</svg>
